<svg aria-hidden="true" style="position: absolute; width: 0; height: 0; overflow: hidden;" version="1.1"
    xmlns="http://www.w3.org/2000/svg" xmlns:xlink="http://www.w3.org/1999/xlink">
    <defs>
        <symbol id="icon-chevron-down" viewBox="0 0 32 32">
            <path
                d="M22.869 10.869c0.625-0.625 1.638-0.625 2.263 0s0.625 1.638 0 2.262l-8 8c-0.625 0.625-1.638 0.625-2.263 0l-8-8c-0.625-0.625-0.625-1.638 0-2.262s1.638-0.625 2.263 0l6.869 6.869 6.869-6.869z">
            </path>
        </symbol>
        <symbol id="icon-book" viewBox="0 0 34 32">
            <path
                d="M30.477 6.592c0-0.882-0.001-1.442-0.036-1.864-0.033-0.401-0.087-0.527-0.109-0.571-0.128-0.251-0.332-0.455-0.583-0.583-0.044-0.022-0.171-0.077-0.574-0.109-0.422-0.034-0.98-0.036-1.861-0.036h-0.61c-1.735 0-2.933 0.002-3.864 0.078-0.91 0.074-1.411 0.211-1.781 0.4-0.824 0.42-1.495 1.091-1.915 1.915-0.188 0.37-0.325 0.872-0.4 1.781-0.076 0.93-0.078 2.129-0.078 3.864v12.888c0.705-0.513 1.49-0.907 2.326-1.161 1.167-0.355 2.426-0.337 4.228-0.337h2.094c0.881 0 1.439-0.001 1.861-0.036 0.402-0.033 0.53-0.087 0.574-0.109 0.25-0.128 0.455-0.332 0.583-0.583 0.022-0.044 0.077-0.17 0.109-0.571 0.035-0.422 0.036-0.982 0.036-1.864v-13.103zM33.906 19.694c0 0.825 0.002 1.549-0.047 2.143-0.050 0.614-0.164 1.24-0.473 1.848-0.456 0.896-1.185 1.624-2.080 2.080-0.608 0.31-1.236 0.423-1.85 0.473-0.594 0.048-1.316 0.047-2.141 0.047h-2.094c-2.015 0-2.667 0.018-3.232 0.19-0.55 0.167-1.062 0.441-1.507 0.806-0.456 0.375-0.833 0.908-1.951 2.585l-0.152 0.228c-0.419 0.629-1.201 0.909-1.924 0.69s-1.216-0.886-1.216-1.641v-17.676c0-1.678-0.001-3.040 0.089-4.143 0.092-1.122 0.285-2.126 0.761-3.060 0.749-1.469 1.944-2.664 3.413-3.413 0.934-0.476 1.938-0.669 3.060-0.761 1.102-0.090 2.464-0.089 4.143-0.089h0.61c0.824 0 1.547-0.002 2.141 0.047 0.614 0.050 1.242 0.163 1.85 0.473 0.896 0.457 1.624 1.185 2.080 2.080 0.309 0.608 0.423 1.234 0.473 1.848 0.049 0.594 0.047 1.318 0.047 2.143v13.103z">
            </path>
            <path
                d="M0 6.592c0-0.825-0.002-1.549 0.047-2.143 0.050-0.614 0.164-1.24 0.473-1.848 0.457-0.896 1.184-1.624 2.080-2.080 0.608-0.31 1.234-0.423 1.848-0.473 0.594-0.049 1.318-0.047 2.143-0.047h0.609c1.678 0 3.041-0.001 4.143 0.089 1.122 0.092 2.125 0.286 3.058 0.761 1.469 0.749 2.664 1.944 3.413 3.413 0.476 0.934 0.672 1.938 0.763 3.060 0.090 1.102 0.089 2.464 0.089 4.143v17.676c0 0.755-0.496 1.422-1.219 1.641s-1.503-0.061-1.922-0.69l-0.154-0.228c-1.118-1.677-1.492-2.21-1.949-2.585-0.445-0.365-0.958-0.638-1.509-0.806-0.565-0.171-1.215-0.19-3.23-0.19h-2.094c-0.825 0-1.549 0.002-2.143-0.047-0.614-0.050-1.24-0.164-1.848-0.473-0.896-0.457-1.624-1.184-2.080-2.080-0.31-0.608-0.423-1.234-0.473-1.848-0.049-0.594-0.047-1.318-0.047-2.143v-13.103zM3.429 19.694c0 0.882 0.001 1.442 0.036 1.864 0.033 0.402 0.087 0.527 0.109 0.571 0.128 0.251 0.332 0.455 0.583 0.583 0.044 0.022 0.17 0.076 0.571 0.109 0.422 0.035 0.982 0.036 1.864 0.036h2.094c1.802 0 3.061-0.017 4.228 0.337 0.836 0.254 1.621 0.648 2.326 1.161v-12.888c0-1.735-0.002-2.933-0.078-3.864-0.074-0.91-0.211-1.411-0.4-1.781-0.42-0.824-1.091-1.495-1.915-1.915-0.37-0.188-0.872-0.325-1.781-0.4-0.93-0.076-2.129-0.078-3.864-0.078h-0.609c-0.882 0-1.442 0.001-1.864 0.036-0.402 0.033-0.527 0.087-0.571 0.109-0.251 0.128-0.455 0.332-0.583 0.583-0.022 0.044-0.076 0.17-0.109 0.571-0.034 0.422-0.036 0.982-0.036 1.864v13.103z">
            </path>
        </symbol>
        <symbol id="icon-close" viewBox="0 0 32 32">
            <path
                d="M30.4 1.623c-0.891-0.891-2.331-0.891-3.223 0l-11.177 11.154-11.177-11.177c-0.891-0.891-2.331-0.891-3.223 0s-0.891 2.331 0 3.223l11.177 11.177-11.177 11.177c-0.891 0.891-0.891 2.331 0 3.223s2.331 0.891 3.223 0l11.177-11.177 11.177 11.177c0.891 0.891 2.331 0.891 3.223 0s0.891-2.331 0-3.223l-11.177-11.177 11.177-11.177c0.869-0.869 0.869-2.331 0-3.2z">
            </path>
        </symbol>
        <symbol id="icon-ukraine" viewBox="0 0 32 32">
            <path fill="#ffda44" style="fill: var(--color1, #ffda44)"
                d="M16 32c8.837 0 16-7.163 16-16s-7.163-16-16-16c-8.837 0-16 7.163-16 16s7.163 16 16 16z"></path>
            <path fill="#338af3" style="fill: var(--color2, #338af3)" d="M0 16c0-8.836 7.163-16 16-16s16 7.163 16 16z">
            </path>
        </symbol>
    </defs>
</svg>